<svg width="114" height="106" viewBox="0 0 114 106" fill="none" xmlns="http://www.w3.org/2000/svg">
<path d="M30.7916 80.0924L37.8749 71.2411L15.0722 53L37.8749 34.7591L30.7916 25.9077L2.45822 48.5744C1.79435 49.1053 1.25841 49.7787 0.890106 50.5448C0.521801 51.3109 0.330566 52.15 0.330566 53C0.330566 53.8501 0.521801 54.6892 0.890106 55.4553C1.25841 56.2214 1.79435 56.8948 2.45822 57.4257L30.7916 80.0924ZM83.2082 25.9077L76.1249 34.7591L98.9276 53L76.1249 71.2411L83.2082 80.0924L111.542 57.4257C112.205 56.8948 112.741 56.2214 113.11 55.4553C113.478 54.6892 113.669 53.8501 113.669 53C113.669 52.15 113.478 51.3109 113.11 50.5448C112.741 49.7787 112.205 49.1053 111.542 48.5744L83.2082 25.9077Z" fill="white"/>
<path d="M73.8638 3.22386L51.1971 105.224L40.1301 102.765L62.7968 0.764526L73.8638 3.22386Z" fill="white"/>
</svg>
