<svg width="130" height="146" viewBox="0 0 130 146" fill="none" xmlns="http://www.w3.org/2000/svg">
<path d="M5.82715 113.071L60.0434 144.372C61.5834 145.258 63.3291 145.725 65.1059 145.725C66.8827 145.725 68.6283 145.258 70.1684 144.372L124.385 113.07C125.922 112.179 127.199 110.901 128.087 109.362C128.976 107.823 129.445 106.079 129.448 104.302V41.6986C129.445 39.9219 128.976 38.177 128.087 36.6383C127.199 35.0996 125.922 33.821 124.385 32.9301L70.1687 1.6283C68.6286 0.742299 66.8829 0.276001 65.1062 0.276001C63.3294 0.276001 61.5838 0.742299 60.0437 1.6283L5.82715 32.9301C4.28988 33.8209 3.0133 35.0996 2.12493 36.6383C1.23656 38.177 0.767514 39.9219 0.764648 41.6986V104.302C0.767514 106.079 1.23656 107.824 2.12493 109.362C3.0133 110.901 4.28988 112.18 5.82715 113.071ZM70.1684 13.3198L119.322 41.6986V97.8221L70.1684 70.0394V13.3198ZM65.0897 78.7991L114.815 106.905L65.1071 135.603L15.3814 106.895L65.0897 78.7991ZM10.8896 41.6986L60.0434 13.3198V70.0198L10.8896 97.8035V41.6986Z" fill="white"/>
</svg>
