<svg width="156" height="124" viewBox="0 0 156 124" fill="none" xmlns="http://www.w3.org/2000/svg">
<path opacity="0.3" d="M68.1844 26.8694C68.1865 25.1875 67.8587 23.5214 67.2194 21.9662C66.5801 20.4109 65.6417 18.9966 64.4573 17.8044C63.2729 16.6121 61.8657 15.6652 60.3157 15.0182C58.7656 14.3712 57.1035 14.037 55.4243 14.0349L55.4179 14.0349L45.1578 26.8663H42.6578C42.6578 33.9381 48.3562 39.701 55.4211 39.701C62.4844 39.701 68.1827 33.9435 68.1844 26.8694ZM68.1844 26.8694L65.6844 26.8663H68.1844C68.1844 26.8673 68.1844 26.8684 68.1844 26.8694ZM101.022 26.8659C101.023 25.1852 100.696 23.5203 100.057 21.9662C99.4174 20.4109 98.479 18.9966 97.2946 17.8044C96.1102 16.6121 94.703 15.6652 93.153 15.0182C91.6029 14.3712 89.9408 14.037 88.2616 14.0348L88.2544 14.0349C84.8634 14.0402 81.6153 15.3978 79.224 17.8058C76.8339 20.2126 75.495 23.4715 75.4984 26.8659C75.4962 28.5466 75.8235 30.2116 76.4618 31.7659C77.1006 33.3214 78.0386 34.736 79.2226 35.9286C80.4066 37.1213 81.8136 38.0686 83.3634 38.7161C84.9132 39.3636 86.5752 39.6983 88.2544 39.701L88.2616 39.701C89.9412 39.6988 91.6036 39.3645 93.1539 38.7172C94.7042 38.07 96.1116 37.1228 97.2961 35.93C98.4805 34.7374 99.4188 33.3226 100.058 31.7669L97.7454 30.817L100.058 31.7669C100.696 30.2122 101.024 28.547 101.022 26.8659ZM101.022 26.8659C101.022 26.8647 101.022 26.8635 101.022 26.8623L98.5217 26.8663L101.022 26.8694C101.022 26.8683 101.022 26.8671 101.022 26.8659ZM133.869 43.4011C133.871 41.7199 133.543 40.0544 132.905 38.4996C132.265 36.9436 131.327 35.5287 130.142 34.336C128.957 33.1432 127.549 32.196 125.998 31.549C124.447 30.902 122.785 30.568 121.105 30.5664L121.099 30.5664C119.42 30.5686 117.757 30.903 116.207 31.5503C114.657 32.1976 113.25 33.145 112.065 34.3379L113.84 36.0992L112.065 34.3379C110.881 35.5307 109.943 36.9455 109.305 38.5014C108.667 40.0557 108.34 41.7206 108.342 43.4011C108.34 45.0816 108.667 46.7464 109.305 48.3006C109.943 49.8563 110.882 51.271 112.066 52.4635L113.84 50.7019L112.066 52.4635C113.25 53.6561 114.658 54.6032 116.208 55.2501C117.758 55.897 119.42 56.231 121.1 56.2326L121.104 56.2326C122.784 56.2315 124.447 55.898 125.997 55.2514C127.548 54.6048 128.956 53.658 130.141 52.4655C131.326 51.273 132.265 49.8582 132.904 48.3023C133.543 46.7477 133.871 45.0823 133.869 43.4011ZM133.869 43.4011C133.869 43.3998 133.869 43.3985 133.869 43.3972L131.369 43.4011L133.869 43.4051C133.869 43.4038 133.869 43.4024 133.869 43.4011ZM39.4452 51.6656C39.4476 49.9846 39.1202 48.3192 38.4815 46.7647C37.8425 45.2094 36.9044 43.7952 35.7201 42.6031C34.5358 41.4109 33.1286 40.4642 31.5786 39.8176L30.616 42.1248L31.5786 39.8176C30.0287 39.1709 28.3666 38.8371 26.6876 38.8355L26.682 38.8355C23.2909 38.8398 20.0425 40.1964 17.6504 42.6036C15.2589 45.0102 13.919 48.2698 13.9219 51.6651M39.4452 51.6656C39.4442 58.7398 33.7462 64.4984 26.6852 64.4984C19.6245 64.4984 13.9227 58.7367 13.9219 51.6651M39.4452 51.6656C39.4452 51.665 39.4452 51.6643 39.4452 51.6637H36.9452L39.4452 51.6676C39.4452 51.667 39.4452 51.6663 39.4452 51.6656ZM13.9219 51.6651C13.9219 51.6654 13.9219 51.6657 13.9219 51.666L16.4219 51.6637H13.9219C13.9219 51.6641 13.9219 51.6646 13.9219 51.6651ZM66.6149 90.3302L64.3022 89.3808C63.5608 91.1867 63.1811 93.1212 63.1844 95.0739C63.1844 95.0746 63.1844 95.0752 63.1844 95.0759L65.6844 95.0713L66.6149 90.3302ZM2.5 49.6013C2.5 46.0266 3.85409 41.2773 6.68628 36.0699C9.49833 30.8995 13.6847 25.4332 19.1352 20.4442C30.0268 10.4749 45.8632 2.5 65.6844 2.5C90.1044 2.5 112.133 6.61175 127.979 16.5835C143.648 26.4436 153.498 42.164 153.5 66.1362C153.5 79.868 147.666 93.6352 135.4 104.009C123.124 114.392 104.242 121.5 78.0016 121.5C62.9766 121.5 51.7657 110.235 51.7657 95.0681C51.7657 88.2314 49.4417 83.1838 44.4379 80.036C39.7021 77.057 32.9333 76.0365 24.6312 76.0365C17.1173 76.0365 11.7064 73.2349 8.11483 68.7143C4.46209 64.1167 2.5 57.4911 2.5 49.6013Z" stroke="white" stroke-width="5"/>
</svg>
