<svg xmlns="http://www.w3.org/2000/svg" viewBox="0 0 339.85 108.05"><defs><style>.cls-1{fill:none;stroke:#231f20;stroke-linecap:round;stroke-linejoin:round;stroke-width:6px;}</style></defs><g id="Layer_2" data-name="Layer 2"><g id="Layer_1-2" data-name="Layer 1"><path class="cls-1" d="M205.76,7V7C200,48.26,195.2,66,192.08,102.3c-.06.75-.21,2.61.39,2.74.95.21,3.15-4,4.19-6,4.22-8,6.33-12,15.84-34.56.85-2,2.67-6.29.27-9.11a38.7,38.7,0,0,0-3.33-3.18c-2.26-2-3.2-2.42-3.27-3.33-.13-1.6,2.54-2.94,3.68-3.51,8.39-4.24,21.41-10.1,23.64-11.1-2.92,14.15-5,24.58-5.46,27.47-.12.69-.38,2.31.7,3a3.73,3.73,0,0,0,2.56.09c4.12-1,85.31-29.07,105.56-36.07"/><path class="cls-1" d="M179.93,36.33c.44,2.81,1.23,8,2.22,14.66,1.43,9.6,2.16,12.91,3.79,13.15,1.19.19,2.33-1.32,6.06-6.7,3.06-4.43,5.63-8.25,7.63-11.26"/><path class="cls-1" d="M3,40.48,112.43,3c-3,29.71-5.11,41.86-6.64,53.19-.35,2.54-1.42,10.39.28,10.73,1.07.21,2.51-2.64,6.21-8.39a100.46,100.46,0,0,1,18-20.65c1.78-1.5,4.21-3.41,5.56-2.89s1,3.35.83,4.45c-2.57,18.22-4,26.76-2,27.48.84.3,2.41-.6,7.83-5.92A181.84,181.84,0,0,0,156.8,45.26"/><line class="cls-1" x1="226.42" y1="21.74" x2="234.86" y2="18.44"/><path class="cls-1" d="M172.05,53.2c-7.47,9.2-15,12-19.17,9.78s-3.55-8.52,3.92-17.72,16.93-14.88,21.14-12.69S179.51,44,172.05,53.2Z"/></g></g></svg>