<svg width="1042" height="954" viewBox="0 0 1042 954" fill="none" xmlns="http://www.w3.org/2000/svg">
<g filter="url(#filter0_i)">
<path d="M131.884 180.859C95.0568 251.094 153.942 372.278 239.013 416.137C310.343 452.885 346.542 407.669 512.264 416.217C608.926 421.219 720.066 428.463 770.207 504.344C790.449 534.994 810.534 591.63 787.039 621.15C741.375 678.551 588.443 561.44 479.544 631.567C427.516 665.083 399.311 732.447 407.716 786.939C423.435 888.899 569.071 957.304 677.591 936.497C815.653 910.035 895.485 738.845 898.782 609.308C905.261 355.101 619.787 148.052 384.144 119.992C347.837 115.682 176.794 95.2751 131.884 180.859Z" fill="#FFE600"/>
</g>
<defs>
<filter id="filter0_i" x="-84.0117" y="-0.00914001" width="1125.2" height="1021.7" filterUnits="userSpaceOnUse" color-interpolation-filters="sRGB">
<feFlood flood-opacity="0" result="BackgroundImageFix"/>
<feBlend mode="normal" in="SourceGraphic" in2="BackgroundImageFix" result="shape"/>
<feColorMatrix in="SourceAlpha" type="matrix" values="0 0 0 0 0 0 0 0 0 0 0 0 0 0 0 0 0 0 127 0" result="hardAlpha"/>
<feOffset/>
<feGaussianBlur stdDeviation="36"/>
<feComposite in2="hardAlpha" operator="arithmetic" k2="-1" k3="1"/>
<feColorMatrix type="matrix" values="0 0 0 0 0 0 0 0 0 0 0 0 0 0 0 0 0 0 1 0"/>
<feBlend mode="normal" in2="shape" result="effect1_innerShadow"/>
</filter>
</defs>
</svg>
